<svg xmlns="http://www.w3.org/2000/svg" viewBox="0 0 71.22 71.12"><defs><style>.cls-1,.cls-2{fill:#df1271;}.cls-2{stroke:#fff;stroke-miterlimit:10;}</style></defs><g id="Layer_2" data-name="Layer 2"><g id="Layer_1-2" data-name="Layer 1"><path class="cls-1" d="M35.61,0a34.45,34.45,0,0,1,13.8,2.79,36.17,36.17,0,0,1,19,19,34.23,34.23,0,0,1,2.8,13.78,34.16,34.16,0,0,1-2.8,13.78,36.07,36.07,0,0,1-19,19,34.45,34.45,0,0,1-13.8,2.79,34.72,34.72,0,0,1-13.9-2.79,35.7,35.7,0,0,1-11.29-7.66A36.62,36.62,0,0,1,2.8,49.34,34.16,34.16,0,0,1,0,35.56,34.23,34.23,0,0,1,2.8,21.78a36.58,36.58,0,0,1,7.62-11.32A35.73,35.73,0,0,1,21.71,2.79,34.72,34.72,0,0,1,35.61,0Zm0,63.32A26.5,26.5,0,0,0,46.31,61.1a28.74,28.74,0,0,0,8.82-6,27.92,27.92,0,0,0,5.92-8.82,27.94,27.94,0,0,0,0-21.59A27.58,27.58,0,0,0,46.31,10a28.05,28.05,0,0,0-21.59,0A27.64,27.64,0,0,0,10,24.72a28.05,28.05,0,0,0,0,21.59,28,28,0,0,0,5.93,8.82,28.74,28.74,0,0,0,8.82,6A26.68,26.68,0,0,0,35.56,63.32Z"/><path class="cls-2" d="M24.09,39l-3-3L36,21.13l3,3ZM44,25l-3-3L26.15,36.9l3,3Zm.89,5-3-3L27,41.93l3,3Zm.89,5-3-3L27.94,47l2.95,3Zm5,.89-3-3L33,47.84l3,3Z"/></g></g></svg>